<?xml version="1.0" encoding="UTF-8" standalone="no"?>
<!-- Generator: visioncortex VTracer 0.6.12 -->

<svg
   version="1.1"
   width="1145"
   height="776"
   id="svg107"
   sodipodi:docname="ToT_Namibia_logo.svg"
   inkscape:version="1.3.2 (091e20e, 2023-11-25, custom)"
   inkscape:export-filename="ToT_Namibia_logo.png"
   inkscape:export-xdpi="96"
   inkscape:export-ydpi="96"
   xmlns:inkscape="http://www.inkscape.org/namespaces/inkscape"
   xmlns:sodipodi="http://sodipodi.sourceforge.net/DTD/sodipodi-0.dtd"
   xmlns="http://www.w3.org/2000/svg"
   xmlns:svg="http://www.w3.org/2000/svg">
  <defs
     id="defs107">
    <rect
       x="566.76353"
       y="199.62926"
       width="555.29058"
       height="146.85371"
       id="rect109" />
    <rect
       x="703.29158"
       y="142.26453"
       width="123.90782"
       height="66.543086"
       id="rect108" />
    <rect
       x="594.2986"
       y="176.68337"
       width="470.39078"
       height="112.43487"
       id="rect107" />
    <rect
       x="566.76355"
       y="199.62926"
       width="555.29059"
       height="146.85371"
       id="rect109-2" />
  </defs>
  <sodipodi:namedview
     id="namedview107"
     pagecolor="#ffffff"
     bordercolor="#000000"
     borderopacity="0.25"
     inkscape:showpageshadow="2"
     inkscape:pageopacity="0.0"
     inkscape:pagecheckerboard="0"
     inkscape:deskcolor="#d1d1d1"
     inkscape:zoom="0.43580786"
     inkscape:cx="816.87375"
     inkscape:cy="113.58216"
     inkscape:window-width="1920"
     inkscape:window-height="1017"
     inkscape:window-x="-8"
     inkscape:window-y="-8"
     inkscape:window-maximized="1"
     inkscape:current-layer="svg107" />
  <path
     d="M0 0 C0.749 0.008 1.498 0.015 2.27 0.023 C8.011 0.195 11.858 0.932 16.562 4.438 C17.14 5.366 17.718 6.294 18.312 7.25 C22.26 12.842 29.116 16.289 35.562 18.438 C38.259 18.537 40.93 18.579 43.628 18.576 C44.459 18.578 45.29 18.581 46.147 18.584 C48.943 18.592 51.739 18.594 54.534 18.595 C56.535 18.6 58.535 18.605 60.536 18.611 C64.849 18.622 69.163 18.63 73.476 18.637 C80.296 18.647 87.115 18.668 93.935 18.69 C113.329 18.752 132.723 18.806 152.116 18.839 C162.823 18.857 173.53 18.886 184.237 18.927 C189.905 18.948 195.572 18.963 201.24 18.966 C206.571 18.968 211.902 18.984 217.233 19.01 C219.19 19.017 221.146 19.019 223.103 19.016 C225.774 19.012 228.445 19.027 231.117 19.046 C231.891 19.04 232.665 19.034 233.463 19.029 C241.362 19.126 245.676 22.311 251.375 27.438 C264.17 38.448 281.192 37.745 297.353 37.894 C309.247 38.024 317.093 39.24 326.562 46.438 C331.752 48.167 336.004 48.13 340.938 45.938 C345.886 43.89 351.183 43.536 356.417 44.932 C364.283 46.785 370.766 45.051 377.938 41.812 C397.134 33.692 417.28 29.049 437.562 24.438 C438.137 24.306 438.137 24.306 441.044 23.642 C478.532 15.201 478.532 15.201 495.312 25.5 C497.562 27.437 497.562 27.437 498.562 30.438 C497.67 30.547 496.778 30.657 495.859 30.77 C494.689 30.928 493.518 31.087 492.312 31.25 C491.152 31.401 489.992 31.552 488.797 31.707 C485.513 32.449 484.145 33.409 481.562 35.438 C479.656 35.372 477.75 35.306 475.844 35.238 C469.759 35.77 464.217 39.295 460.25 43.812 C458.831 45.63 457.534 47.481 456.266 49.406 C454.422 52.183 453.085 54.176 450.062 55.688 C446.247 55.306 444.936 53.324 442.562 50.438 C442.212 49.716 441.861 48.994 441.5 48.25 C440.271 45.873 438.986 45.465 436.562 44.438 C435.572 43.778 434.582 43.118 433.562 42.438 C428.507 42.068 424.345 42.822 419.504 44.238 C418.846 44.43 418.189 44.623 417.511 44.82 C415.378 45.451 413.251 46.099 411.125 46.75 C410.394 46.971 409.662 47.191 408.908 47.419 C398.091 50.702 387.941 54.699 377.773 59.677 C371.799 62.559 366.088 64.591 359.625 66.062 C333.374 72.175 312.497 92.087 298.562 114.438 C286.609 133.718 277.708 159.207 282.285 182.043 C282.978 185.846 283.301 188.633 282.562 192.438 C279.108 196.426 275.086 199.087 270.701 201.969 C266.941 204.552 263.492 207.508 260 210.438 C258.56 211.628 257.12 212.818 255.68 214.008 C251.436 217.534 247.225 221.099 243.023 224.676 C239.13 227.981 235.159 231.173 231.156 234.344 C228.082 236.826 225.071 239.376 222.062 241.938 C217.572 245.758 213.029 249.491 208.41 253.156 C199.448 260.335 190.608 267.67 181.875 275.125 C176.951 279.326 171.903 283.342 166.792 287.313 C162.242 290.864 157.837 294.56 153.455 298.315 C149.591 301.609 145.637 304.764 141.625 307.875 C136.209 312.078 130.989 316.463 125.813 320.957 C121.819 324.407 117.734 327.706 113.562 330.938 C108.081 335.184 102.792 339.612 97.551 344.15 C92.659 348.38 87.644 352.437 82.562 356.438 C81.687 357.17 80.812 357.902 79.91 358.656 C77.562 360.438 77.562 360.438 75.562 360.438 C75.283 359.543 75.003 358.648 74.715 357.727 C72.365 350.639 70.051 344.935 65.211 339.109 C60.191 330.972 60.219 322.486 60.5 313.188 C60.56 310.912 60.611 308.636 60.652 306.359 C60.682 305.365 60.711 304.371 60.742 303.347 C60.541 300.091 59.646 297.501 58.562 294.438 C58.362 290.762 58.54 287.563 59.188 283.938 C59.562 280.438 59.562 280.438 58.562 277.062 C57.357 272.692 57.393 268.833 58.562 264.438 C59.222 264.108 59.882 263.777 60.562 263.438 C61.222 263.767 61.882 264.098 62.562 264.438 C62.474 262.416 62.366 260.395 62.25 258.375 C62.192 257.25 62.134 256.124 62.074 254.965 C61.102 248.263 57.758 242.841 54.25 237.188 C51.528 232.758 48.963 228.336 46.625 223.688 C44.429 219.552 41.86 216.444 38.625 213.062 C34.085 208.298 31.22 203.493 28.281 197.637 C26.559 194.432 24.629 191.649 22.438 188.75 C16.439 180.655 13.519 173.801 11.75 163.938 C10.441 156.669 8.666 151.864 3.367 146.445 C0.422 143.169 -0.335 139.866 -1.348 135.617 C-2.381 131.342 -3.982 127.523 -5.875 123.562 C-6.218 122.839 -6.56 122.115 -6.914 121.369 C-10.797 113.38 -15.515 105.929 -20.22 98.407 C-23.825 92.575 -27.011 86.773 -29.312 80.312 C-32.307 72.484 -38.476 66.87 -44.992 61.824 C-48.118 58.825 -48.744 55.412 -49.375 51.25 C-49.96 47.694 -50.699 44.579 -52.062 41.25 C-53.602 36.943 -53.733 32.718 -53.75 28.188 C-53.755 27.501 -53.761 26.815 -53.766 26.109 C-53.7 21.358 -53.347 17.387 -49.922 13.891 C-46.129 11.26 -43.185 9.653 -38.438 9.438 C-37.447 9.767 -36.457 10.097 -35.438 10.438 C-30.816 11.184 -26.974 11.288 -22.805 8.98 C-21.157 7.784 -19.538 6.546 -17.957 5.262 C-12.187 1.084 -6.929 -0.098 0 0 Z M139.562 96.438 C140.562 98.438 140.562 98.438 140.562 98.438 Z M95.562 105.438 C96.562 107.438 96.562 107.438 96.562 107.438 Z M83.562 134.438 C84.562 136.438 84.562 136.438 84.562 136.438 Z M90.562 135.438 C91.562 137.438 91.562 137.438 91.562 137.438 Z M90.562 142.438 C91.562 144.438 91.562 144.438 91.562 144.438 Z M84.562 148.438 C85.562 150.438 85.562 150.438 85.562 150.438 Z M158.562 175.438 C159.562 177.438 159.562 177.438 159.562 177.438 Z "
     fill="#013774"
     transform="translate(83.4375,29.5625)"
     id="path1" />
  <path
     d="M0 0 C0.169 0.585 0.169 0.585 1.023 3.543 C1.474 5.091 1.924 6.639 2.375 8.188 C2.597 8.956 2.818 9.725 3.047 10.518 C3.156 10.893 3.156 10.893 3.711 12.793 C3.81 13.136 3.81 13.136 4.314 14.872 C5 17 5 17 6.026 19.03 C7.411 23.251 7.286 27.225 7.274 31.641 C7.279 32.618 7.285 33.594 7.29 34.601 C7.305 37.876 7.306 41.152 7.306 44.428 C7.314 46.775 7.322 49.122 7.332 51.47 C7.354 57.847 7.362 64.225 7.367 70.603 C7.371 74.586 7.377 78.569 7.384 82.551 C7.404 93.58 7.42 104.608 7.423 115.637 C7.424 116.342 7.424 117.047 7.424 117.774 C7.424 119.204 7.425 120.634 7.425 122.064 C7.425 122.773 7.425 123.483 7.426 124.214 C7.426 124.57 7.426 124.57 7.426 126.368 C7.43 137.891 7.457 149.413 7.494 160.936 C7.532 172.769 7.551 184.601 7.552 196.434 C7.552 203.077 7.561 209.72 7.59 216.362 C7.616 222.607 7.618 228.851 7.602 235.096 C7.6 237.39 7.607 239.684 7.623 241.979 C7.643 245.106 7.633 248.232 7.615 251.359 C7.628 252.271 7.641 253.183 7.655 254.123 C7.595 258.594 7.456 260.418 4.616 264.046 C1.962 266.028 0.276 266.756 -2.938 267.375 C-7.777 268.615 -9.941 270.477 -12.844 274.477 C-14 276 -14 276 -16 277 C-19.188 277.375 -19.188 277.375 -23 277 C-23.949 276.196 -24.898 275.391 -25.875 274.562 C-29.66 271.495 -33.513 271.594 -38.188 271.5 C-46.494 271.311 -54.068 269.837 -60.812 264.59 C-62.332 262.555 -62.284 261.444 -62.125 258.938 C-62 255 -62 255 -63 253 C-63.382 252.876 -63.382 252.876 -65.312 252.25 C-68.872 250.594 -70.047 248.328 -72 245 C-75.313 245.188 -75.313 245.188 -79 246 C-80.019 247.655 -81.018 249.323 -82 251 C-85.961 252.794 -87.972 253.349 -92.125 251.938 C-97.894 248.05 -101.5 243.108 -105.355 237.414 C-106.63 235.543 -107.987 233.727 -109.375 231.938 C-111.502 228.092 -112.24 224.395 -112 220 C-110.536 216.268 -110.536 216.268 -108 215 C-106.821 209.832 -106.643 205.755 -108.711 200.816 C-110.797 197.877 -113.609 196.648 -116.844 195.203 C-121.517 192.595 -122.905 188.074 -124.742 183.316 C-126.38 180.3 -128.5 178.343 -131 176 C-139.531 167.949 -144.863 161.693 -147.812 150.25 C-149.594 143.406 -152.505 138.478 -156.488 132.742 C-158 130 -158 130 -158.121 127.949 C-156.341 124.855 -153.574 123.017 -150.75 120.938 C-149.462 119.959 -148.175 118.979 -146.891 117.996 C-146.564 117.747 -146.564 117.747 -144.912 116.488 C-142.032 114.246 -139.265 111.881 -136.5 109.5 C-132.108 105.735 -127.634 102.108 -123.062 98.562 C-118.258 94.834 -113.592 90.986 -109 87 C-103.848 82.527 -98.576 78.261 -93.186 74.079 C-88.027 70.06 -83.045 65.853 -78.07 61.609 C-73.442 57.664 -68.721 53.834 -64 50 C-62.703 48.944 -61.406 47.888 -60.109 46.832 C-53.652 41.576 -47.183 36.334 -40.672 31.145 C-37.876 28.901 -35.096 26.638 -32.318 24.373 C-25.825 19.081 -19.302 13.836 -12.692 8.69 C-9.984 6.578 -7.328 4.429 -4.727 2.188 C-2 0 -2 0 0 0 Z "
     fill="#027947"
     transform="translate(342,409)"
     id="path2" />
  <path
     d="M0 0 C0.401 1.042 0.802 2.083 1.215 3.156 C5.34 13.636 10.255 23.32 16 33 C13.324 36.169 10.656 39.31 7.797 42.316 C-15.158 66.567 -33.686 101.074 -32.95 135.319 C-32.865 136.777 -32.777 138.235 -32.684 139.693 C-32.207 147.771 -32.207 147.771 -34.652 151.562 C-37.285 154.016 -40.02 155.981 -43 158 C-44.917 159.413 -46.816 160.847 -48.716 162.281 C-50.079 163.307 -51.447 164.327 -52.819 165.34 C-58.729 169.714 -64.283 174.427 -69.824 179.254 C-73.326 182.302 -76.937 185.199 -80.578 188.078 C-85.097 191.664 -89.541 195.341 -94 199 C-96.748 201.249 -99.497 203.498 -102.246 205.746 C-104.093 207.258 -105.94 208.771 -107.785 210.285 C-112.126 213.844 -116.477 217.386 -120.875 220.875 C-124.732 223.947 -128.501 227.111 -132.25 230.312 C-137.23 234.56 -142.315 238.64 -147.481 242.659 C-154.463 248.109 -161.267 253.773 -168.089 259.421 C-170.655 261.541 -173.233 263.646 -175.812 265.75 C-178.658 268.071 -181.49 270.406 -184.301 272.77 C-184.855 273.235 -185.409 273.7 -185.979 274.179 C-187.543 275.493 -189.103 276.811 -190.664 278.129 C-193 280 -193 280 -194 280 C-194.11 279.336 -194.219 278.672 -194.332 277.988 C-194.411 277.547 -194.411 277.547 -194.812 275.312 C-194.963 274.442 -195.114 273.572 -195.27 272.676 C-196 270 -196 270 -197.586 267.59 C-199.424 264.223 -199.103 262.045 -198.812 258.25 C-198.653 252.124 -199.443 248.942 -203.492 244.355 C-208.746 236.148 -207.085 225.305 -206.746 216.037 C-206.584 207.562 -208.026 201.409 -212.098 194.003 C-214.902 187.776 -214.335 178.565 -213 172 C-210.372 167.793 -207.168 165.593 -203 163 C-201.509 161.849 -200.029 160.682 -198.562 159.5 C-197.829 158.941 -197.096 158.381 -196.34 157.805 C-191.808 154.309 -187.419 150.636 -183 147 C-181.167 145.499 -179.334 143.999 -177.5 142.5 C-174.737 140.24 -171.975 137.979 -169.215 135.715 C-164.874 132.156 -160.523 128.614 -156.125 125.125 C-152.268 122.053 -148.499 118.889 -144.75 115.688 C-139.628 111.318 -134.393 107.119 -129.084 102.979 C-123.65 98.739 -118.315 94.387 -113 90 C-111.712 88.94 -110.425 87.88 -109.137 86.82 C-97.331 77.103 -97.331 77.103 -91.621 72.375 C-84.494 66.479 -77.328 60.652 -70.027 54.972 C-65.547 51.471 -61.211 47.822 -56.894 44.124 C-53.007 40.811 -49.032 37.633 -45 34.5 C-39.761 30.428 -34.66 26.226 -29.615 21.916 C-25.661 18.543 -21.636 15.277 -17.555 12.059 C-15.614 10.494 -13.711 8.909 -11.82 7.285 C-11.55 7.054 -11.55 7.054 -10.18 5.885 C-8.637 4.564 -7.102 3.235 -5.566 1.906 C-3 0 -3 0 0 0 Z "
     fill="#D8182D"
     transform="translate(372,240)"
     id="path3" />
  <path
     d="M0 0 C3.67 3.465 5.625 6.95 7.562 11.562 C7.714 11.918 7.714 11.918 8.483 13.715 C17.895 36.211 17.76 61.56 8.673 84.106 C2.567 98.429 -5.705 110.411 -16 122 C-16.866 123.051 -17.729 124.104 -18.59 125.16 C-20.574 127.498 -22.465 129.428 -24.812 131.375 C-27.621 133.764 -30.248 136.226 -32.812 138.875 C-42.691 148.868 -54.462 157.141 -65.547 165.758 C-73.535 171.981 -81.32 178.401 -89 185 C-89.715 185.602 -90.431 186.204 -91.168 186.824 C-112.125 204.67 -129.068 226.331 -134 254 C-136.269 283.912 -125.53 309.235 -106.438 331.812 C-104.643 333.891 -102.825 335.948 -101 338 C-100.203 338.908 -99.407 339.815 -98.586 340.75 C-94.505 345.35 -90.284 349.75 -85.906 354.066 C-82.778 357.24 -79.891 360.611 -77 364 C-76.708 364.34 -76.708 364.34 -75.23 366.059 C-73.817 367.703 -72.408 369.351 -71 371 C-72.873 372.731 -74.749 374.46 -76.625 376.188 C-77.147 376.67 -77.669 377.153 -78.207 377.65 C-81.719 380.88 -85.313 383.972 -89 387 C-91.837 385.69 -94.088 384.244 -96.438 382.188 C-96.993 381.707 -97.549 381.226 -98.121 380.73 C-104.305 375.035 -109.9 368.758 -115.568 362.56 C-116.773 361.247 -117.989 359.945 -119.207 358.645 C-145.923 329.644 -159.29 294.523 -158.17 255.282 C-156.722 227.379 -142.747 201.906 -125 181 C-124.781 180.741 -124.781 180.741 -123.672 179.43 C-118.574 173.455 -118.574 173.455 -116 171 C-115.34 171 -114.68 171 -114 171 C-113.737 170.402 -113.474 169.804 -113.203 169.188 C-111.93 166.873 -110.767 165.684 -108.75 164 C-108.036 163.397 -107.322 162.793 -106.586 162.172 C-105.733 161.455 -104.879 160.738 -104 160 C-102.949 159.09 -101.9 158.179 -100.852 157.266 C-93.264 150.672 -85.492 144.371 -77.552 138.208 C-74.59 135.903 -71.661 133.557 -68.738 131.203 C-66.617 129.497 -64.489 127.801 -62.355 126.109 C-33.2 102.862 -10.109 78.184 -2 41 C-1.876 40.444 -1.876 40.444 -1.25 37.629 C0.97 25.28 0.176 12.492 0 0 Z "
     fill="#013775"
     transform="translate(510,114)"
     id="path4" />
  <path
     d="M0 0 C1.805 1.914 1.805 1.914 3.875 4.625 C7.516 9.241 11.325 13.553 15.375 17.812 C21.242 24.033 26.581 30.541 31.743 37.354 C32.932 38.912 34.149 40.449 35.367 41.984 C56.547 69.101 67.558 102.451 63.504 136.875 C59.489 165.149 46.569 190.348 27 211 C25.827 212.349 24.66 213.703 23.5 215.062 C17.916 221.459 11.872 227.332 5.43 232.855 C1.368 236.44 -2.555 240.174 -6.504 243.881 C-9.682 246.859 -12.87 249.801 -16.188 252.625 C-42.218 275.211 -61.759 306.096 -65 341 C-65.077 343.593 -65.108 346.187 -65.098 348.781 C-65.097 349.131 -65.097 349.131 -65.093 350.899 C-65.088 353.1 -65.075 355.3 -65.062 357.5 C-65.057 359.005 -65.053 360.51 -65.049 362.016 C-65.038 365.677 -65.021 369.339 -65 373 C-65.66 373 -66.32 373 -67 373 C-79.485 348.242 -85.24 320.375 -76.736 293.143 C-68.303 268.597 -52.794 249.42 -35 231 C-34.212 230.183 -33.425 229.365 -32.613 228.523 C-28.972 224.818 -25.181 221.351 -21.246 217.961 C-17.503 214.693 -13.859 211.318 -10.207 207.949 C-8.071 205.979 -5.922 204.025 -3.762 202.082 C18.712 181.784 37.904 157.702 39.938 126.25 C41.603 86.628 14.136 55.99 -10.402 28.133 C-10.952 27.503 -11.503 26.874 -12.069 26.226 C-13.125 25.018 -14.187 23.815 -15.255 22.618 C-17.73 19.778 -19.276 17.691 -20 14 C-19.024 13.241 -18.048 12.481 -17.043 11.699 C-15.758 10.695 -14.473 9.692 -13.188 8.688 C-12.545 8.188 -11.902 7.688 -11.24 7.174 C-10.618 6.687 -9.996 6.201 -9.355 5.699 C-8.785 5.254 -8.214 4.809 -7.626 4.35 C-6 3 -6 3 -4.478 1.331 C-3 0 -3 0 0 0 Z "
     fill="#027947"
     transform="translate(445,288)"
     id="path5" />
  <path
     d="M0 0 C8.607 6.092 14.687 14.153 16.746 24.645 C17.692 35.951 15.896 44.768 9.121 53.957 C2.916 61.239 -5.347 66.108 -14.953 66.98 C-27.766 67.106 -36.542 65.234 -46.09 56.02 C-53.504 47.883 -56.103 39.563 -56.254 28.645 C-55.614 19.115 -51.416 10.19 -44.379 3.707 C-31.227 -6.764 -14.636 -8.802 0 0 Z "
     fill="#F9BF08"
     transform="translate(230.25390625,138.35546875)"
     id="path7" />
  <path
     d="M0 0 C1.293 1.354 1.293 1.354 2.758 3.262 C3.297 3.962 3.837 4.663 4.393 5.384 C4.964 6.144 5.536 6.904 6.125 7.688 C6.71 8.46 7.294 9.233 7.896 10.03 C24.482 32.219 33.816 55.463 30.732 83.431 C26.835 108.645 10.409 128.564 -9 144 C-9.66 143.67 -10.32 143.34 -11 143 C-10.674 142.498 -10.674 142.498 -9.023 139.957 C5.844 116.82 14.563 92.723 9 65 C5.134 48.622 -4.792 31.139 -17.387 19.863 C-17.919 19.248 -18.451 18.634 -19 18 C-18.628 14.76 -17.548 13.204 -15.164 11.055 C-14.594 10.535 -14.025 10.016 -13.438 9.48 C-12.839 8.951 -12.241 8.421 -11.625 7.875 C-11.035 7.337 -10.444 6.8 -9.836 6.246 C-2.92 0 -2.92 0 0 0 Z "
     fill="#013775"
     transform="translate(466,517)"
     id="path9" />
  <path
     d="M0 0 C0.165 0.495 0.165 0.495 1 3 C-0.152 4.918 -0.152 4.918 -1.938 7.188 C-17.255 28.192 -25.295 55.95 -21.309 81.812 C-18.14 100.123 -11.7 118.291 0 133 C-1.543 137.309 -4.834 139.497 -8.375 142.125 C-8.952 142.567 -9.53 143.009 -10.125 143.465 C-12.967 145.612 -15.731 147.567 -19 149 C-36.785 122.827 -47.081 92.993 -40.972 60.978 C-35.257 36.291 -19.105 15.969 0 0 Z "
     fill="#013775"
     transform="translate(420,120)"
     id="path10"
     style="fill:#027947;fill-opacity:1" />
  <path
     d="m 559,453 c 29,0 29,0 37,3 5.752,5.996 6.4,9.6 6.355,17.719 -0.523,4.833 -2.028,6.799 -5.355,10.281 -0.99,0.66 -1.98,1.32 -3,2 1.072,0.516 2.145,1.031 3.25,1.562 3.975,2.331 6.407,4.987 7.75,9.438 0.728,5.52 0.97,10.967 -1.688,16 -3.993,5.181 -8.208,8.295 -14.722,9.414 -9.946,0.791 -19.486,0.586 -29.59,0.586 0,-23.1 0,-46.2 0,-70 z m 12,11 c 0,5.61 0,11.22 0,17 13.006,0.608 13.006,0.608 17.375,-2.062 2.031,-3.671 2.227,-5.8 1.625,-9.938 -1.299,-2.469 -2.064,-3.674 -4.719,-4.598 -2.876,-0.507 -5.612,-0.496 -8.531,-0.464 -0.949,0.01 -0.949,0.01 -5.75,0.062 z m 0,28 c 0,6.27 0,12.54 0,19 2.537,0.082 5.074,0.165 7.688,0.25 0.789,0.036 1.579,0.073 2.393,0.11 3.822,0.06 5.556,-0.128 8.876,-2.251 2.625,-2.71 2.988,-3.626 3.418,-7.421 C 593,498 593,498 590.75,495.125 c -4.426,-3.42 -7.979,-3.243 -13.5,-3.187 -1.031,0.01 -1.031,0.01 -6.25,0.062 z"
     fill="#027947"
     id="path11"
     style="fill:#d8182d;fill-opacity:1" />
  <path
     d="m 877.35937,285.87109 c 2.07001,1.167 3.952,2.441 5.641,4.129 0.33,-1.32 0.66001,-2.64 1,-4 3.96,0 7.92001,0 12,0 0.074,6.813 0.128,13.627 0.164,20.441 0.015,2.315 0.036,4.63 0.062,6.945 0.037,3.339 0.053,6.677 0.067,10.016 0.015,1.026 0.031,2.051 0.047,3.107 0.002,8.727 -1.35299,16.49 -7.575,22.983 -6.743,5.759 -14.30699,6.261 -22.871,5.895 -6.725,-0.668 -11.81099,-2.204 -16.519,-7.137 -0.454,-0.743 -0.908,-1.485 -1.375,-2.25 2.31001,-2.64 4.62,-5.28 7,-8 1.443,0.825 2.88701,1.65 4.375,2.5 5.32401,2.658 9.74,3.462 15.625,2.5 2.99,-1.246 4.39201,-2.19 6.312,-4.75 0.953,-3.119 0.812,-6.012 0.688,-9.25 -0.908,0.66 -1.81499,1.32 -2.75,2 -5.716,3.246 -12.351,3.042 -18.58999,1.375 -6.45301,-2.774 -10.028,-8.037 -13.03501,-14.188 -1.69999,-8.665 -1.22999,-17.272 3.441,-24.937 6.37,-8.409 16.331,-11.057 26.293,-7.379 z m -15.359,14.129 c -2.69499,4.491 -2.66,8.896 -2,14 1.62,3.242 2.942,5.197 5.812,7.375 4.684,1.338 8.072,1.183 12.438,-1 3.15501,-2.725 4.475,-4.401 5.75,-8.375 0.14,-5.292 -0.66199,-9.762 -4,-14 -5.872,-3.915 -13.232,-3.365 -18,2 z"
     fill="#013775"
     id="path13" />
  <path
     d="m 911,478 c 0.66,0.66 1.32,1.32 2,2 0.206,-0.211 0.206,-0.211 1.25,-1.277 4.558,-4.324 7.431,-5.723 13.75,-5.723 5.179,1.117 9.263,3.395 12.25,7.875 1.832,5.191 1.888,10.484 1.848,15.93 -0.002,0.724 -0.003,1.448 -0.005,2.194 -0.005,2.292 -0.018,4.584 -0.031,6.876 -0.005,1.562 -0.009,3.125 -0.013,4.687 -0.011,3.813 -0.028,7.626 -0.049,11.438 -1.812,0.194 -3.624,0.38 -5.438,0.562 -0.504,0.053 -0.504,0.053 -3.058,0.317 -0.413,0.02 -0.413,0.02 -2.504,0.121 -1.924,-1.924 -1.223,-5.441 -1.281,-7.992 -0.009,-0.351 -0.009,-0.351 -0.056,-2.127 -0.059,-2.252 -0.112,-4.504 -0.163,-6.756 -0.068,-2.956 -0.141,-5.912 -0.219,-8.867 -0.03,-1.319 -0.06,-2.637 -0.092,-3.996 C 929,490 929,490 928,487 c -3.05,-1.525 -5.642,-1.236 -9,-1 -2.093,1.395 -2.777,2.317 -3.551,4.688 -0.588,3.027 -0.671,5.964 -0.765,9.046 -0.021,0.648 -0.021,0.648 -0.127,3.926 -0.04,1.363 -0.08,2.727 -0.119,4.09 -0.044,1.379 -0.087,2.758 -0.131,4.137 -0.106,3.371 -0.208,6.742 -0.307,10.113 -3.63,0 -7.26,0 -11,0 -0.02,-0.883 -0.04,-1.765 -0.06,-2.675 -0.078,-3.289 -0.165,-6.578 -0.257,-9.868 -0.039,-1.421 -0.073,-2.841 -0.105,-4.262 -0.046,-2.049 -0.104,-4.096 -0.164,-6.144 -0.031,-1.231 -0.063,-2.462 -0.095,-3.729 -0.328,-3.411 -0.799,-6.802 -3.319,-9.322 -6.358,-0.471 -6.358,-0.471 -8.875,1.375 -2.453,3.544 -2.319,6.312 -2.441,10.602 -0.021,0.685 -0.042,1.37 -0.063,2.076 -0.066,2.191 -0.125,4.381 -0.183,6.572 -0.044,1.484 -0.087,2.969 -0.131,4.453 -0.107,3.641 -0.209,7.281 -0.307,10.922 -1.812,0.194 -3.624,0.38 -5.438,0.562 -0.504,0.053 -0.504,0.053 -3.058,0.317 -0.826,0.04 -1.653,0.08 -2.504,0.121 -1,-1 -1,-1 -1.12,-2.905 0.002,-0.832 0.004,-1.665 0.006,-2.523 10e-4,-0.941 10e-4,-1.882 10e-4,-2.851 0.005,-1.023 0.01,-2.046 0.015,-3.1 0.002,-1.042 0.003,-2.084 0.005,-3.157 0.005,-3.342 0.018,-6.684 0.031,-10.026 0.005,-2.26 0.009,-4.52 0.013,-6.78 0.011,-5.553 0.029,-11.105 0.049,-16.658 3.63,0 7.26,0 11,0 0.33,1.32 0.66,2.64 1,4 0.454,-0.402 0.454,-0.402 2.75,-2.438 6.953,-5.708 14.489,-3.874 21.25,1.438 z"
     fill="#027947"
     id="path15"
     style="fill:#d8182d;fill-opacity:1" />
  <path
     d="m 807.51953,379.6875 c 5.827,2.674 9.109,6.948 12.293,12.438 1.187,3.874 1.187,3.874 1.187,15.874 -11.22,0.33 -22.44,0.661 -34,1 3,6 3,6 5.625,7.938 4.378,1.378 7.965,1.353 12.375,0.062 2.313,-2.124 2.313,-2.124 4,-4 4.114,-0.137 7.109,3.438 10,6 -3.808,5.406 -7.544,8.299 -14,10 -8.707,1.167 -15.772,0.134 -23,-5 -4.996,-4.382 -7.633,-9.697 -8.355,-16.207 -0.319,-7.963 0.417,-14.35 5.355,-20.793 2.483,-2.359 5.052,-4.264 8,-6 0.301,-0.186 0.301,-0.186 1.825,-1.132 5.555,-2.214 13.001,-1.734 18.695,-0.18 z m -18.52,12.312 c -1.812,3.188 -1.812,3.188 -3,6 1,1 1,1 3.134,1.114 0.916,-0.005 1.832,-0.01 2.777,-0.016 0.989,-0.003 1.978,-0.006 2.998,-0.01 0.52,-0.004 0.52,-0.004 3.154,-0.025 1.045,-0.005 2.09,-0.009 3.166,-0.014 2.591,-0.012 5.181,-0.028 7.771,-0.049 -1.734,-6.757 -1.734,-6.757 -4.125,-8.937 -5.677,-2.098 -11.107,-2.149 -15.875,1.937 z"
     fill="#013775"
     id="path19" />
  <path
     d="m 674.6875,380.625 c 4.433,2.708 6.691,6.511 8.312,11.375 0.166,2.644 0.282,5.267 0.352,7.914 0.023,0.77 0.046,1.541 0.07,2.334 0.048,1.626 0.093,3.251 0.136,4.877 0.067,2.498 0.145,4.995 0.224,7.492 0.045,1.578 0.089,3.156 0.133,4.735 0.023,0.751 0.047,1.502 0.072,2.275 0.044,1.791 0.034,3.582 0.013,5.373 -1,1 -1,1 -3.503,1.098 -1.01,-0.012 -2.019,-0.024 -3.059,-0.035 -1.012,-0.01 -2.024,-0.019 -3.066,-0.028 -0.392,-0.006 -0.392,-0.006 -2.372,-0.035 -0.659,-1.32 -1.32,-2.64 -2,-4 -0.763,0.639 -1.526,1.279 -2.312,1.937 -5.057,3.881 -10.538,3.81 -16.688,3.063 -4.121,-1.62 -7.031,-3.941 -10,-7.187 -1.848,-5.2 -1.85,-10.511 0.063,-15.688 4.082,-4.477 9.941,-7.31 15.937,-8.125 4.672,-0.154 9.328,-0.117 14,0 -1.624,-5.75 -1.624,-5.75 -5,-8 -4.596,-0.753 -8.634,-0.638 -12.562,2 -0.804,0.66 -1.609,1.32 -2.438,2 -3.365,-1.443 -5.51,-3.333 -8,-6 1.851,-4.583 4.523,-5.969 8.879,-8.012 7.191,-2.277 15.822,-2.458 22.809,0.637 z M 652.9995,410 c -1.124,2.437 -1.124,2.437 -1,5 1.376,2.313 1.376,2.313 4,4 4.657,0.858 7.957,0.652 12,-1.875 3.223,-3.423 3.101,-5.516 3,-10.125 -13.424,-0.586 -13.424,-0.586 -18,3 z"
     fill="#013775"
     id="path20" />
  <path
     d="m 965.5,287 c 6.014,3.512 9.972,8.337 11.875,15.062 1.295,8.158 0.904,15.283 -3.957,22.184 -5.252,6.236 -9.808,9.236 -17.996,9.992 -8.129,0.226 -13.913,-1.353 -20.234,-6.55 -5.755,-7.071 -8.025,-13.615 -7.188,-22.688 1.721,-6.973 4.931,-12.882 11.062,-16.812 7.879,-4.673 18.083,-4.978 26.438,-1.188 z M 943,300 c -2.949,4.64 -2.497,9.694 -2,15 1.345,3.588 2.523,4.659 5.625,6.875 4.468,1.489 7.894,1.659 12.375,0.125 2.894,-1.894 4.545,-3.864 6,-7 1.012,-5.421 0.685,-9.606 -1.75,-14.562 -3.461,-3.75 -5.001,-4.317 -10.125,-4.813 -4.313,0.113 -6.828,1.549 -10.125,4.375 z"
     fill="#013775"
     id="path21" />
  <path
     d="m 996,379 c 4.946,2.296 7.308,5.313 10,10 1.253,3.758 1.124,7.255 1.098,11.168 0,0.795 0,1.59 0,2.408 0,2.538 -0.018,5.074 -0.031,7.612 0,1.72 -0.01,3.441 -0.013,5.162 -0.011,4.216 -0.028,8.433 -0.049,12.65 -1.979,0.027 -3.958,0.046 -5.938,0.062 -1.102,0.012 -2.204,0.024 -3.339,0.036 C 995,428 995,428 994,427 c -0.135,-2.328 -0.204,-4.66 -0.246,-6.992 -0.033,-1.442 -0.066,-2.883 -0.1,-4.324 -0.047,-2.28 -0.092,-4.561 -0.131,-6.841 -0.04,-2.195 -0.091,-4.39 -0.144,-6.585 -0.025,-1.319 -0.05,-2.637 -0.076,-3.996 C 993,395 993,395 991,392 c -6.643,-1.393 -6.643,-1.393 -10.375,-0.312 -2.058,1.661 -2.657,2.834 -3.625,5.312 -0.23,2.384 -0.355,4.778 -0.414,7.172 -0.019,0.682 -0.039,1.365 -0.059,2.068 -0.059,2.17 -0.106,4.34 -0.152,6.51 -0.038,1.475 -0.077,2.951 -0.117,4.426 -0.096,3.608 -0.18,7.216 -0.258,10.824 -1.979,0.027 -3.958,0.046 -5.938,0.062 -1.102,0.012 -2.204,0.024 -3.339,0.036 C 964,428 964,428 963,427 c -0.098,-1.437 -0.128,-2.88 -0.129,-4.32 -0.004,-0.918 -0.007,-1.836 -0.01,-2.781 0.002,-0.998 0.004,-1.996 0.006,-3.024 -10e-4,-1.017 -0.002,-2.034 -0.003,-3.083 0,-2.155 10e-4,-4.31 0.006,-6.466 0.005,-3.312 0,-6.623 -0.007,-9.935 10e-4,-2.089 0.002,-4.177 0.004,-6.266 -0.002,-0.998 -0.004,-1.996 -0.006,-3.024 0.003,-0.918 0.006,-1.835 0.01,-2.781 0,-0.812 10e-4,-1.624 0.002,-2.46 C 963,381 963,381 964,380 c 1.853,-0.072 3.708,-0.084 5.562,-0.062 1.012,0.009 2.024,0.018 3.067,0.027 0.391,0.006 0.391,0.006 2.371,0.035 0,1.65 0,3.3 0,5 0.51,-0.433 1.021,-0.866 1.547,-1.312 6.323,-4.843 11.575,-5.992 19.453,-4.688 z"
     fill="#013775"
     id="path22" />
  <path
     d="m 753,379 c 4.935,2.291 7.353,5.294 10,10 1.389,3.903 1.126,7.959 1.098,12.047 -0.002,0.771 -0.003,1.542 -0.005,2.337 -0.005,2.455 -0.018,4.911 -0.031,7.366 -0.005,1.668 -0.009,3.336 -0.013,5.004 -0.011,4.082 -0.028,8.164 -0.049,12.246 -1.979,0.027 -3.958,0.046 -5.938,0.062 -1.102,0.012 -2.204,0.024 -3.339,0.036 C 752,428 752,428 751,427 c -0.135,-2.328 -0.204,-4.66 -0.246,-6.992 -0.033,-1.442 -0.066,-2.883 -0.1,-4.324 -0.047,-2.28 -0.092,-4.561 -0.131,-6.841 -0.04,-2.195 -0.091,-4.39 -0.144,-6.585 -0.025,-1.319 -0.05,-2.637 -0.076,-3.996 C 750,395 750,395 748,392 c -6.764,-1.552 -6.764,-1.552 -10.938,0.312 C 735,394 735,394 734,396 c -0.143,2.311 -0.227,4.626 -0.281,6.941 -0.019,0.683 -0.037,1.366 -0.056,2.07 -0.079,2.926 -0.147,5.852 -0.215,8.779 -0.052,2.134 -0.109,4.268 -0.167,6.401 -0.015,0.641 -0.015,0.641 -0.092,3.882 C 733,427 733,427 732,428 c -3.96,0 -7.92,0 -12,0 0,-15.84 0,-31.68 0,-48 3.96,0 7.92,0 12,0 0.33,1.65 0.66,3.3 1,5 0.289,-0.309 0.289,-0.309 1.75,-1.875 5.379,-5.08 11.144,-4.887 18.25,-4.125 z"
     fill="#013775"
     id="path23" />
  <path
     d="m 551,358 c 7.53,-0.025 15.059,-0.043 22.589,-0.055 2.564,-0.005 5.128,-0.012 7.692,-0.02 3.676,-0.013 7.352,-0.018 11.028,-0.023 1.154,-0.005 2.308,-0.01 3.497,-0.015 0.531,0 0.531,0 3.215,-10e-4 0.94,-0.002 1.879,-0.004 2.847,-0.006 C 604,358 604,358 605,359 c 0.143,3.669 0.042,7.327 0,11 -3.3,0.165 -3.3,0.165 -20,1 -0.33,18.81 -0.66,37.62 -1,57 -4.29,0 -8.58,0 -13,0 0,-19.14 0,-38.28 0,-58 -6.6,0 -13.2,0 -20,0 0,-3.96 0,-7.92 0,-12 z"
     fill="#013775"
     id="path24" />
  <path
     d="m 672.46875,285.71875 c 4.68,2.545 7.863,6.276 9.531,11.281 0.085,2.732 0.116,5.437 0.098,8.168 -0.002,0.795 -0.003,1.59 -0.004,2.409 -0.006,2.537 -0.019,5.074 -0.031,7.611 -0.005,1.72 -0.01,3.441 -0.014,5.162 -0.011,4.217 -0.028,8.433 -0.049,12.65 -3.63,0 -7.26,0 -11,0 -0.33,-1.32 -0.66,-2.64 -1,-4 -0.763,0.64 -1.526,1.279 -2.312,1.938 -5.086,3.903 -10.511,3.677 -16.688,3.062 -3.88,-1.221 -6.882,-3.026 -9.937,-5.687 -2.223,-4.838 -2.653,-9.507 -1,-14.563 3.283,-4.66 7.002,-8.054 12.66,-9.414 5.39,-0.795 10.841,-1.049 16.277,-1.336 0.121,-2.383 0.121,-2.383 0,-5 -2.248,-2.176 -3.951,-2.951 -7.09,-3.097 -5.556,0.389 -9.291,2.051 -13.91,5.097 -0.618,-0.804 -1.237,-1.608 -1.875,-2.437 -2.125,-2.563 -2.125,-2.563 -4.125,-3.563 1.16,-3.479 1.838,-3.811 4.875,-5.625 0.699,-0.425 1.398,-0.851 2.117,-1.289 6.324,-3.42 16.623,-3.362 23.477,-1.367 z m -18.469,28.281 c -2.147,3.222 -2.561,4.26 -2,8 2.316,2.686 3.85,2.981 7.375,3.438 4.238,-0.512 6.334,-1.774 9.625,-4.438 1.479,-2.956 1.061,-5.742 1,-9 -5.77,-0.206 -10.491,0.196 -16,2 z"
     fill="#013775"
     id="path25" />
  <path
     d="m 551,264 c 17.49,0 34.98,0 53,0 0,3.96 0,7.92 0,12 -6.6,0 -13.2,0 -20,0 0,18.81 0,37.62 0,57 -4.29,0 -8.58,0 -13,0 0,-18.81 0,-37.62 0,-57 -6.6,0 -13.2,0 -20,0 0,-3.96 0,-7.92 0,-12 z"
     fill="#013775"
     id="path26" />
  <path
     d="m 826,479 c 4.705,4.454 6.694,9.096 7.371,15.516 0.147,8.234 -0.206,14.809 -5.371,21.484 -4.326,4.335 -8.889,7.052 -15,8 -6.861,-0.022 -12.558,-0.914 -17.812,-5.625 -5.672,-5.861 -8.159,-12.313 -8.563,-20.437 0.84,-8.825 3.755,-14.939 10.375,-20.938 9.576,-5.937 20.344,-5.171 29,2 z m -25,10 c -2.884,4.691 -2.641,9.664 -2,15 1.99,3.911 3.365,5.577 7,8 4.159,0.335 6.922,0.407 10.812,-1.062 3.874,-3.432 4.985,-7.344 5.626,-12.376 -0.537,-4.366 -1.794,-8.012 -4.438,-11.562 -6.041,-3.849 -12.193,-3.09 -17,2 z"
     fill="#027947"
     id="path27"
     style="fill:#d8182d;fill-opacity:1" />
  <path
     d="m 667.5,475.5 c 5.683,3.427 9.504,9.267 11.5,15.5 0.991,9.127 0.761,17.464 -5,25 -4.761,5.267 -10.081,7.097 -17.043,7.938 -7.426,0.156 -12.914,-2.805 -18.227,-7.864 -4.928,-5.907 -6.447,-12.766 -6.105,-20.34 1.103,-8.044 4.098,-13.259 10.375,-18.359 6.962,-4.786 16.685,-5.298 24.5,-1.875 z M 646.188,490 c -1.838,4.643 -1.852,9.077 -1.188,14 1.99,3.911 3.365,5.577 7,8 4.159,0.335 6.922,0.407 10.812,-1.062 3.896,-3.451 5.019,-7.363 5.563,-12.438 -0.546,-5.1 -1.658,-9.022 -5.625,-12.438 -6.707,-2.591 -11.812,-1.304 -16.562,3.938 z"
     fill="#027947"
     id="path28"
     style="fill:#d8182d;fill-opacity:1" />
  <path
     d="m 751,285 c 4.464,1.684 6.415,3.851 8.567,8.076 1.754,4.197 1.819,7.985 1.726,12.483 -0.004,0.789 -0.009,1.578 -0.013,2.391 -0.017,2.496 -0.054,4.992 -0.092,7.488 -0.016,1.702 -0.029,3.404 -0.042,5.107 -0.032,4.152 -0.084,8.303 -0.146,12.455 -3.96,0 -7.92,0 -12,0 -0.02,-0.918 -0.04,-1.836 -0.06,-2.782 -0.078,-3.415 -0.165,-6.829 -0.257,-10.243 -0.039,-1.476 -0.073,-2.952 -0.105,-4.429 -0.046,-2.125 -0.104,-4.249 -0.164,-6.374 -0.016,-0.639 -0.016,-0.639 -0.095,-3.872 -0.294,-3.042 -0.617,-4.8 -2.319,-7.3 -3.2,-1.6 -6.527,-1.495 -10,-1 -2.713,1.878 -3.756,3.051 -4.578,6.245 -0.47,3.067 -0.636,6.048 -0.738,9.15 -0.042,1.202 -0.084,2.404 -0.127,3.642 -0.02,0.623 -0.02,0.623 -0.119,3.775 -0.044,1.266 -0.087,2.531 -0.131,3.834 -0.106,3.118 -0.207,6.236 -0.307,9.354 -3.96,0 -7.92,0 -12,0 0,-15.51 0,-31.02 0,-47 3.96,0 7.92,0 12,0 0.33,1.32 0.66,2.64 1,4 0.784,-0.639 1.567,-1.279 2.375,-1.938 5.371,-4.219 10.994,-3.75 17.625,-3.062 z"
     fill="#013775"
     id="path29" />
  <path
     d="m 829,285 c 5.075,2.137 6.874,5.019 9.169,9.77 1.357,3.641 1.328,7.041 1.222,10.886 -0.006,0.788 -0.012,1.576 -0.018,2.387 -0.022,2.487 -0.072,4.971 -0.123,7.457 -0.02,1.698 -0.038,3.396 -0.055,5.094 -0.044,4.136 -0.112,8.271 -0.195,12.406 -3.96,0 -7.92,0 -12,0 -0.005,-0.474 -0.005,-0.474 -0.028,-2.874 -0.044,-3.527 -0.106,-7.052 -0.18,-10.578 -0.028,-1.525 -0.049,-3.05 -0.063,-4.574 -0.021,-2.195 -0.068,-4.389 -0.12,-6.583 -0.021,-1.32 -0.042,-2.64 -0.063,-3.999 -0.626,-3.887 -1.389,-5.11 -4.546,-7.392 -3.438,-0.562 -3.438,-0.562 -7,0 -3.401,2.642 -4.834,4.139 -5.659,8.413 -0.016,1.273 -0.032,2.545 -0.048,3.857 -0.015,0.681 -0.03,1.362 -0.046,2.063 -0.043,2.16 -0.052,4.319 -0.059,6.479 -0.024,1.471 -0.049,2.942 -0.077,4.413 -0.062,3.591 -0.095,7.183 -0.111,10.775 -3.96,0 -7.92,0 -12,0 -1.069,-15.766 -1.146,-31.237 0,-47 3.63,0 7.26,0 11,0 0.33,1.65 0.66,3.3 1,5 0.784,-0.804 1.567,-1.609 2.375,-2.438 5.081,-4.96 10.825,-4.134 17.625,-3.562 z"
     fill="#013775"
     id="path30" />
  <path
     d="m 740,474 c 5.516,2.758 7.64,5.935 9.568,11.698 0.632,3.369 0.554,6.717 0.53,10.13 -0.002,0.749 -0.003,1.498 -0.005,2.27 -0.005,2.384 -0.018,4.768 -0.031,7.152 -0.005,1.62 -0.009,3.24 -0.013,4.859 -0.011,3.964 -0.028,7.927 -0.049,11.891 -1.812,0.194 -3.624,0.38 -5.438,0.562 -0.504,0.053 -0.504,0.053 -3.058,0.317 -0.413,0.02 -0.413,0.02 -2.504,0.121 -1.889,-1.889 -1.176,-5.188 -1.211,-7.703 -0.028,-1.387 -0.057,-2.774 -0.086,-4.16 -0.041,-2.19 -0.078,-4.38 -0.104,-6.57 -0.028,-2.111 -0.074,-4.222 -0.122,-6.333 -0.02,-1.266 -0.04,-2.532 -0.06,-3.837 -0.442,-3.597 -1.232,-5.534 -3.417,-8.397 -2.71,-0.83 -5.233,-0.537 -8,0 -2.674,1.812 -2.959,2.878 -4,6 -0.151,2.283 -0.249,4.569 -0.316,6.855 -0.021,0.662 -0.042,1.324 -0.063,2.005 -0.066,2.109 -0.125,4.218 -0.183,6.328 -0.044,1.431 -0.087,2.863 -0.131,4.294 -0.107,3.506 -0.209,7.012 -0.307,10.518 -3.883,1.294 -6.907,1.132 -11,1 -1,-1 -1,-1 -1.12,-2.905 0.002,-0.832 0.004,-1.665 0.006,-2.523 10e-4,-0.941 10e-4,-1.882 10e-4,-2.851 0.005,-1.023 0.01,-2.046 0.015,-3.1 0.002,-1.042 0.003,-2.084 0.005,-3.157 0.005,-3.342 0.018,-6.684 0.031,-10.026 0.005,-2.26 0.009,-4.52 0.013,-6.78 0.011,-5.553 0.029,-11.105 0.049,-16.658 3.96,0 7.92,0 12,0 0.33,0.99 0.66,1.98 1,3 0.928,-0.639 1.856,-1.279 2.812,-1.938 5.334,-3.451 9.156,-3.382 15.188,-2.062 z"
     fill="#027947"
     id="path31"
     style="fill:#d8182d;fill-opacity:1" />
  <path
     d="m 983.5625,477.35547 c 4.39,5.023 4.897,9.976 4.949,16.324 0.018,0.813 0.036,1.626 0.055,2.463 0.053,2.578 0.088,5.155 0.121,7.733 0.033,1.755 0.068,3.51 0.104,5.265 0.084,4.286 0.151,8.573 0.209,12.86 -1.65,0.165 -1.65,0.165 -10,1 -0.66,-1.32 -1.321,-2.64 -2,-4 -0.805,0.639 -1.609,1.278 -2.438,1.937 -4.565,3.007 -9.435,3.686 -14.777,2.621 -4.581,-1.493 -7.174,-3.381 -9.785,-7.558 -1.677,-5.029 -1.607,-9.341 0.187,-14.25 2.939,-4.46 6.258,-7.112 11.5,-8.446 5.396,-0.711 10.884,-0.44 16.313,-0.304 -2.626,-6.75 -2.626,-6.75 -6,-9 -4.653,-0.262 -8.196,0.458 -12.063,3.062 -0.639,0.639 -1.279,1.279 -1.937,1.938 -1.981,-1.98 -3.961,-3.96 -6,-6 1.51,-3.845 3.556,-5.755 7,-8 8.345,-3.022 17.247,-3.113 24.562,2.355 z m -20.562,25.645 c -2,2 -2,2 -2.313,4.937 0.313,3.063 0.313,3.063 1.313,4.938 3.248,1.827 6.437,1.854 10,1.125 3.829,-2.689 4.833,-4.221 5.812,-8.813 0.062,-1.052 0.124,-2.104 0.188,-3.187 -5.663,-1.225 -9.454,-0.816 -15,1 z"
     fill="#027947"
     id="path32"
     style="fill:#d8182d;fill-opacity:1" />
  <path
     d="m 895.625,379.82812 c 2.835,1.397 5.139,2.936 7.375,5.17201 0,0.98999 0,1.97999 0,3 -2.75,2.75 -2.75,2.75 -6,5 -2.505,-0.074 -3.717,-0.84001 -5.875,-2.06301 -2.848,-1.256 -5.044,-1.19899 -8.125,-0.93699 -0.99,0.65999 -1.98,1.32 -3,2 0,1.32 0,2.63999 0,4 0.773,0.16999 1.547,0.33999 2.344,0.51599 16.649,3.873 16.649,3.873 21.656,11.48401 1.756,3.512 0.795,7.25899 0,11 -2.187,4.63599 -4.847,7.25 -9.465,9.30499 -8.036,2.20401 -16.335,1.571 -23.765,-2.13699 -1.843,-1.216 -3.273,-2.55101 -4.77,-4.168 1.583,-4.274 4.506,-6.26501 8,-9 0.639,0.63899 1.279,1.279 1.937,1.93699 3.867,2.604 7.411,3.324 12.063,3.06301 0.99,-0.66001 1.98,-1.32001 3,-2 0,-1.32001 0,-2.64001 0,-4 -1.241,-0.375 -2.483,-0.75 -3.762,-1.137 -1.642,-0.51601 -3.284,-1.03301 -4.925,-1.55101 -0.817,-0.244 -1.634,-0.488 -2.475,-0.73999 -5.079,-1.62401 -8.475,-3.21401 -11.838,-7.572 -1.634,-4.44601 -1.197,-8.33201 0.125,-12.81301 5.792,-9.846 17.029,-11.662 27.5,-8.359 z"
     fill="#013775"
     id="path35" />
  <path
     d="m 1006.125,259.8125 c 1.054,0.006 2.109,0.013 3.195,0.02 2.68,0.168 2.68,0.168 4.68,1.168 -0.33,3.3 -0.66,6.6 -1,10 -1.485,0.165 -1.485,0.165 -9,1 -1.971,4.927 -2.18,8.78 -2,14 3.3,0 6.6,0 10,0 0,3.3 0,6.6 0,10 -3.3,0 -6.6,0 -10,0 0,0.542 0,0.542 0.016,3.288 0.018,4.013 0.029,8.025 0.039,12.037 0,1.74 0.012,3.479 0.02,5.218 0.013,2.495 0.018,4.989 0.023,7.484 0,0.782 0.01,1.564 0.015,2.37 0,1.868 -0.051,3.736 -0.113,5.603 -1,1 -1,1 -3.504,1.097 -1.009,-0.011 -2.019,-0.023 -3.059,-0.035 -0.505,-0.005 -0.505,-0.005 -3.066,-0.027 -0.782,-0.012 -1.565,-0.024 -2.371,-0.035 -1.244,-5.785 -1.148,-11.491 -1.125,-17.376 -0.004,-1.002 -0.008,-2.005 -0.012,-3.039 0.008,-5.623 0.301,-11.024 1.137,-16.585 -2.97,0 -5.94,0 -9,0 0,-3.301 0,-6.601 0,-10 1.32,-0.166 1.32,-0.166 8,-1 -0.035,-0.618 -0.07,-1.235 -0.105,-1.872 -0.232,-7.235 0.417,-13.747 5.042,-19.566 4.122,-3.122 6.983,-3.82 12.188,-3.75 z"
     fill="#013775"
     id="path36" />
  <path
     d="m 1124.1133,476.25 c 1.637,1.375 1.637,1.375 3.887,3.75 -1.443,3.366 -3.333,5.51 -6,8 -2,-1 -4,-2 -6,-3 -1.541,-0.07 -3.084,-0.085 -4.625,-0.062 -0.818,0.009 -1.635,0.018 -2.477,0.027 -0.626,0.011 -1.253,0.023 -1.898,0.035 0.33,1.98 0.66,3.96 1,6 1.013,0.28 2.026,0.559 3.07,0.848 13.522,3.951 13.522,3.951 17.105,9.129 1.642,4.029 1.636,7.79 0.825,12.023 -2.341,4.861 -5.166,7.627 -10,10 -7.383,1.697 -14.1,1.175 -21,-2 -2.625,-2.188 -2.625,-2.188 -4,-4 1.306,-3.918 2.831,-6.326 6,-9 0.66,0 1.32,0 2,0 0.278,0.32 0.278,0.32 1.687,1.938 3.047,2.717 5.295,2.843 9.313,3.062 0.495,-0.165 0.495,-0.165 3,-1 0.33,-1.98 0.66,-3.96 1,-6 -0.713,-0.17 -1.426,-0.34 -2.16,-0.516 -14.237,-3.602 -14.237,-3.602 -18.84,-9.484 -1.451,-4.353 -1.854,-8.581 -0.317,-12.938 2.253,-4.336 4.946,-6.743 9.317,-9.062 6.144,-1.696 13.577,-1.025 19.113,2.25 z"
     fill="#027947"
     id="path37"
     style="fill:#d8182d;fill-opacity:1" />
  <path
     d="m 779.0625,448.875 c 0.878,-0.003 1.756,-0.005 2.66,-0.008 2.278,0.133 2.278,0.133 4.278,1.133 -0.331,3.3 -0.66,6.6 -1,10 -1.279,0.082 -2.558,0.165 -3.876,0.25 -2.179,0.141 -2.179,0.141 -4.124,0.75 -2.051,2.87 -2.227,5.29 -2.126,8.75 0.042,1.403 0.083,2.805 0.126,4.25 2.97,0.33 5.94,0.66 9,1 0,3.3 0,6.6 0,10 -3.3,0 -6.601,0 -10,0 0,12.21 0,24.42 0,37 -3.63,0 -7.26,0 -11,0 0,-12.21 0,-24.42 0,-37 -2.64,0 -5.28,0 -8,0 0,-3.3 0,-6.6 0,-10 2.639,0 5.279,0 8,0 -0.035,-0.846 -0.07,-1.691 -0.106,-2.563 -0.165,-6.899 -0.142,-12.277 3.106,-18.437 4.126,-4.023 7.39,-5.142 13.062,-5.125 z"
     fill="#027947"
     id="path38"
     style="fill:#d8182d;fill-opacity:1" />
  <path
     d="M0 0 C31.68 0 63.36 0 96 0 C96.165 1.65 96.165 1.65 97 10 C95.133 11.867 92.457 11.12 89.974 11.124 C89.108 11.121 88.242 11.117 87.349 11.114 C86.896 11.114 86.896 11.114 84.6 11.114 C81.586 11.113 78.572 11.105 75.559 11.098 C73.475 11.096 71.391 11.094 69.308 11.093 C63.812 11.09 58.316 11.08 52.82 11.069 C47.217 11.058 41.613 11.054 36.01 11.049 C25.006 11.038 14.003 11.021 3 11 C0 4.5 0 4.5 0 0 Z "
     fill="#D8182D"
     transform="translate(384,400)"
     id="path39" />
  <path
     d="M0 0 C31.35 0 62.7 0 95 0 C94 8 94 8 92 11 C88.98 11.286 86.165 11.378 83.144 11.341 C82.685 11.341 82.685 11.341 80.365 11.342 C77.324 11.34 74.283 11.316 71.242 11.293 C69.138 11.287 67.033 11.283 64.928 11.28 C59.381 11.269 53.835 11.239 48.288 11.206 C42.631 11.175 36.974 11.162 31.316 11.146 C20.211 11.114 9.105 11.063 -2 11 C-1.859 9.541 -1.712 8.083 -1.562 6.625 C-1.481 5.813 -1.4 5.001 -1.316 4.164 C-1 2 -1 2 0 0 Z "
     fill="#013775"
     transform="translate(407,159)"
     id="path40"
     style="fill:#d8182d;fill-opacity:1" />
  <path
     d="m 1004.25,460.86719 c 0.908,0.003 1.815,0.005 2.75,0.008 0.454,-10e-4 0.454,-10e-4 2.75,-0.008 2.25,0.133 2.25,0.133 3.25,1.133 0.073,2.186 0.084,4.375 0.062,6.562 -0.01,1.198 -0.018,2.395 -0.027,3.629 -0.011,0.927 -0.023,1.854 -0.035,2.809 3.63,0 7.26,0 11,0 0,3.3 0,6.6 0,10 -3.63,0 -7.26,0 -11,0 0.087,4.126 0.193,8.25 0.312,12.375 0.023,1.175 0.046,2.351 0.069,3.562 0.018,0.561 0.018,0.561 0.107,3.399 0.026,1.037 0.053,2.074 0.08,3.142 0.142,0.832 0.285,1.664 0.432,2.522 3.644,2.429 5.712,2.162 10,2 0,3.3 0,6.6 0,10 -5.248,1.859 -9.579,2.671 -15,1 -3.978,-2.431 -5.649,-3.969 -7.156,-8.403 -1.276,-5.649 -1.059,-11.337 -0.969,-17.097 0.01,-1.109 0.018,-2.217 0.027,-3.36 0.024,-2.713 0.057,-5.427 0.098,-8.14 -2.31,-0.33 -4.62,-0.66 -7,-1 -0.33,-3.3 -0.66,-6.6 -1,-10 2.64,0 5.28,0 8,0 -0.012,-0.927 -0.023,-1.854 -0.035,-2.809 -0.01,-1.197 -0.018,-2.395 -0.027,-3.629 -0.012,-1.195 -0.024,-2.39 -0.036,-3.621 0.129,-3.884 0.129,-3.884 3.348,-4.074 z"
     fill="#027947"
     id="path41"
     style="fill:#d8182d;fill-opacity:1" />
  <path
     d="m 1083.6602,474.98047 c 2.886,1.702 4.828,2.877 6.223,5.988 0.117,2.032 0.117,2.032 -1.098,3.735 -0.568,0.51 -1.137,1.021 -1.723,1.547 -0.566,0.52 -1.131,1.041 -1.714,1.578 -0.223,0.193 -0.223,0.193 -1.348,1.172 -4.875,-1.875 -4.875,-1.875 -6,-3 -4.965,-0.382 -8.059,-0.154 -12,3 -2.916,4.645 -2.644,9.698 -2,15 1.295,3.153 2.877,5.438 6,7 7.223,0.466 7.223,0.466 10.5,-1.5 0.495,-0.495 0.99,-0.99 1.5,-1.5 4.274,1.583 6.265,4.505 9,8 -5.015,4.847 -9.112,7.871 -16.383,8.062 -7.93,-0.388 -12.841,-3.348 -18.43,-8.812 -4.61,-6.849 -6.282,-14.043 -5.187,-22.25 2.035,-8.552 6.517,-13.521 13.828,-18.161 5.649,-2.184 13.198,-1.935 18.832,0.141 z"
     fill="#027947"
     id="path42"
     style="fill:#d8182d;fill-opacity:1" />
  <path
     d="M0 0 C11.126 -0.185 22.252 -0.328 33.38 -0.414 C38.547 -0.456 43.713 -0.513 48.88 -0.604 C53.866 -0.69 58.851 -0.738 63.838 -0.759 C65.74 -0.774 67.643 -0.803 69.545 -0.846 C72.21 -0.904 74.872 -0.912 77.538 -0.908 C78.324 -0.937 79.11 -0.966 79.92 -0.995 C82.134 -0.962 82.134 -0.962 86 0 C88.293 2.387 89.912 4.868 91 8 C90.67 8.99 90.34 9.98 90 11 C59.97 11 29.94 11 -1 11 C-1 3.125 -1 3.125 0 0 Z "
     fill="#013775"
     transform="translate(381,365)"
     id="path43"
     style="fill:#d8182d;fill-opacity:1" />
  <path
     d="M0 0 C27.72 0 55.44 0 84 0 C79.411 7.648 79.411 7.648 76 11 C73.219 11.582 71.313 11.768 68.548 11.681 C68.181 11.682 68.181 11.682 66.329 11.684 C63.92 11.68 61.514 11.633 59.105 11.586 C57.431 11.575 55.757 11.566 54.082 11.56 C49.684 11.537 45.287 11.478 40.89 11.412 C36.399 11.351 31.907 11.323 27.416 11.293 C18.61 11.229 9.805 11.126 1 11 C0 8 0 8 0 0 Z "
     fill="#027947"
     transform="translate(403,194)"
     id="path45"
     style="fill:#d8182d;fill-opacity:1" />
  <path
     d="m 630.625,378.9375 c 0.409,0.005 0.409,0.005 2.477,0.027 0.313,0.006 0.313,0.006 1.898,0.035 0.774,4.064 1.098,7.865 1,12 -3,1 -3,1 -6.375,0.876 -3.949,0.136 -5.572,0.682 -8.625,3.124 -2.288,3.479 -2.306,6.636 -2.414,10.735 -0.019,0.648 -0.019,0.648 -0.117,3.926 -0.032,1.363 -0.063,2.726 -0.094,4.089 -0.038,1.379 -0.077,2.758 -0.117,4.137 -0.094,3.371 -0.177,6.742 -0.258,10.113 -4.29,0 -8.58,0 -13,0 0,-15.84 0,-31.68 0,-48 3.96,0 7.92,0 12,0 0.66,1.32 1.32,2.64 2,4 0.784,-0.639 1.567,-1.278 2.375,-1.937 3.441,-2.704 4.966,-3.186 9.25,-3.125 z"
     fill="#013775"
     id="path46" />
  <path
     d="m 861,379 c 0,3.96 0,7.92 0,12 -2,1 -2,1 -5.312,0.875 -3.976,0.135 -5.581,0.729 -8.688,3.125 -2.39,3.585 -2.289,5.338 -2.379,9.602 -0.034,1.294 -0.068,2.588 -0.103,3.921 -0.028,1.368 -0.054,2.735 -0.08,4.102 -0.058,2.68 -0.124,5.359 -0.192,8.039 -0.024,1.191 -0.048,2.381 -0.072,3.608 C 844,427 844,427 843,428 c -3.96,0 -7.92,0 -12,0 0,-15.84 0,-31.68 0,-48 3.96,0 7.92,0 12,0 0.33,1.65 0.66,3.3 1,5 0.949,-0.804 1.898,-1.609 2.875,-2.438 4.765,-4.039 7.947,-3.65 14.125,-3.562 z"
     fill="#013775"
     id="path48" />
  <path
     d="M0 0 C26.73 0 53.46 0 81 0 C80.67 3.3 80.34 6.6 80 10 C52.61 10 25.22 10 -3 10 C-2.01 6.7 -1.02 3.4 0 0 Z "
     fill="#013775"
     transform="translate(392,598)"
     id="path49"
     style="fill:#d8182d;fill-opacity:1" />
  <path
     d="m 635,285 c 0,3.96 0,7.92 0,12 -2.767,0.228 -5.534,0.456 -8.301,0.684 C 624,298 624,298 621,299 c -2.115,3.889 -2.299,7.461 -2.414,11.832 -0.019,0.646 -0.019,0.646 -0.117,3.916 -0.032,1.355 -0.063,2.71 -0.094,4.064 -0.038,1.375 -0.077,2.749 -0.117,4.124 -0.094,3.354 -0.177,6.709 -0.258,10.064 -4.29,0 -8.58,0 -13,0 0,-15.51 0,-31.02 0,-47 3.96,0 7.92,0 12,0 0.33,1.65 0.66,3.3 1,5 0.389,-0.433 0.779,-0.866 1.18,-1.312 5.172,-5.149 8.642,-5.278 15.82,-4.688 z"
     fill="#013775"
     id="path50" />
  <path
     d="m 869,474 c 0,3.96 0,7.92 0,12 -0.526,-0.021 -0.526,-0.021 -3.188,-0.125 -3.646,0.12 -5.692,0.305 -8.812,2.125 -2.949,3.95 -3.404,6.957 -3.512,11.832 -0.035,1.292 -0.071,2.585 -0.107,3.916 -0.023,1.355 -0.046,2.71 -0.069,4.064 -0.033,1.375 -0.067,2.749 -0.103,4.124 -0.082,3.354 -0.152,6.709 -0.209,10.064 -1.812,0.194 -3.624,0.38 -5.438,0.562 -0.504,0.053 -0.504,0.053 -3.058,0.317 -0.826,0.04 -1.653,0.08 -2.504,0.121 -1,-1 -1,-1 -1.12,-2.905 0.002,-0.832 0.004,-1.665 0.006,-2.523 10e-4,-0.941 10e-4,-1.882 10e-4,-2.851 0.005,-1.023 0.01,-2.046 0.015,-3.1 0.002,-1.042 0.003,-2.084 0.005,-3.157 0.005,-3.342 0.018,-6.684 0.031,-10.026 0.005,-2.26 0.009,-4.52 0.013,-6.78 0.011,-5.553 0.029,-11.105 0.049,-16.658 3.63,0 7.26,0 11,0 0.33,1.32 0.66,2.64 1,4 0.454,-0.402 0.454,-0.402 2.75,-2.438 4.618,-3.808 7.374,-3.764 13.25,-2.562 z"
     fill="#027947"
     id="path51"
     style="fill:#d8182d;fill-opacity:1" />
  <path
     d="M0 0 C8.78 -0.023 17.559 -0.041 26.339 -0.052 C30.416 -0.057 34.493 -0.064 38.57 -0.075 C42.506 -0.086 46.441 -0.092 50.377 -0.095 C51.878 -0.097 53.378 -0.1 54.878 -0.106 C56.982 -0.113 59.086 -0.114 61.19 -0.114 C62.387 -0.116 63.584 -0.118 64.817 -0.12 C68 0 68 0 73 1 C71.68 4.3 70.36 7.6 69 11 C60.907 11.209 52.815 11.369 44.72 11.466 C40.961 11.513 37.203 11.577 33.445 11.679 C29.813 11.777 26.184 11.831 22.552 11.854 C21.17 11.87 19.788 11.903 18.407 11.952 C7.567 12.319 7.567 12.319 3.549 8.936 C1.793 6.697 0.327 4.514 -1 2 C-0.67 1.34 -0.34 0.68 0 0 Z "
     fill="#027947"
     transform="translate(403,435)"
     id="path52"
     style="fill:#d8182d;fill-opacity:1" />
  <path
     d="M0 0 C1.053 -0.002 2.105 -0.005 3.19 -0.007 C5.413 -0.006 7.636 0.007 9.86 0.032 C13.269 0.066 16.675 0.053 20.084 0.033 C22.244 0.04 24.403 0.05 26.562 0.062 C27.073 0.06 27.073 0.06 29.659 0.047 C30.607 0.063 31.555 0.079 32.531 0.095 C33.365 0.102 34.199 0.108 35.059 0.114 C37.215 0.629 37.215 0.629 38.933 2.459 C40.482 5.082 41.354 7.715 42.215 10.629 C41.215 11.629 41.215 11.629 38.817 11.749 C37.753 11.747 36.689 11.745 35.594 11.742 C34.392 11.742 33.191 11.742 31.954 11.742 C30.646 11.737 29.339 11.732 27.992 11.727 C26.648 11.725 25.305 11.723 23.961 11.722 C20.418 11.718 16.875 11.709 13.332 11.698 C9.72 11.687 6.107 11.683 2.494 11.678 C-4.599 11.667 -11.692 11.65 -18.785 11.629 C-17.838 10.174 -16.885 8.723 -15.899 7.294 C-14.927 5.842 -14.058 4.321 -13.209 2.793 C-9.286 -0.709 -5.079 -0.066 0 0 Z "
     fill="#013775"
     transform="translate(424.78515625,561.37109375)"
     id="path53"
     style="fill:#d8182d;fill-opacity:1" />
  <path
     d="m 939,380 c 3.96,0 7.92,0 12,0 0,15.84 0,31.68 0,48 -3.96,0 -7.92,0 -12,0 0,-15.84 0,-31.68 0,-48 z"
     fill="#013775"
     id="path54" />
  <path
     d="m 695,380 c 3.96,0 7.92,0 12,0 0,15.84 0,31.68 0,48 -3.96,0 -7.92,0 -12,0 0,-15.84 0,-31.68 0,-48 z"
     fill="#013775"
     id="path55" />
  <path
     d="m 773,286 c 3.96,0 7.92,0 12,0 0,15.51 0,31.02 0,47 -3.96,0 -7.92,0 -12,0 -0.969,-5.556 -1.06,-10.806 -0.879,-16.434 0.024,-0.878 0.047,-1.755 0.072,-2.66 0.076,-2.781 0.16,-5.562 0.245,-8.344 0.053,-1.895 0.106,-3.79 0.158,-5.685 0.128,-4.626 0.264,-9.251 0.404,-13.877 z"
     fill="#013775"
     id="path56" />
  <path
     d="m 687,475 c 3.96,0 7.92,0 12,0 0,15.51 0,31.02 0,47 -1.815,0.165 -1.815,0.165 -11,1 -1,-1 -1,-1 -1.12,-2.905 0.002,-0.832 0.004,-1.665 0.006,-2.523 10e-4,-0.941 10e-4,-1.882 10e-4,-2.851 0.005,-1.023 0.01,-2.046 0.015,-3.1 0.002,-1.042 0.003,-2.084 0.005,-3.157 0.005,-3.342 0.018,-6.684 0.031,-10.026 0.005,-2.26 0.009,-4.52 0.013,-6.78 0.011,-5.553 0.029,-11.105 0.049,-16.658 z"
     fill="#027947"
     id="path57"
     style="fill:#d8182d;fill-opacity:1" />
  <path
     d="m 694,286 c 3.96,0 7.92,0 12,0 0,15.51 0,31.02 0,47 -3.96,0 -7.92,0 -12,0 0,-15.51 0,-31.02 0,-47 z"
     fill="#013775"
     id="path58" />
  <path
     d="m 1032,475 c 3.63,0 7.26,0 11,0 0,15.51 0,31.02 0,47 -3.63,0 -7.26,0 -11,0 -1.4,-32.308 -1.4,-32.308 0,-47 z"
     fill="#027947"
     id="path60"
     style="fill:#d8182d;fill-opacity:1" />
  <path
     d="m 625,475 c 0,15.51 0,31.02 0,47 -3.63,0 -7.26,0 -11,0 0,-15.51 0,-31.02 0,-47 9,-1 9,-1 11,0 z"
     fill="#027947"
     id="path61"
     style="fill:#d8182d;fill-opacity:1" />
  <path
     d="M0 0 C0.428 -0.014 0.428 -0.014 2.591 -0.088 C6.53 -0.185 10.469 -0.259 14.409 -0.313 C16.482 -0.35 18.555 -0.405 20.627 -0.478 C37.865 -1.076 37.865 -1.076 43.161 2.269 C47.974 7.622 47.974 7.622 47.974 10.256 C36.098 11.81 24.161 11.139 12.224 10.819 C10.063 10.766 7.901 10.713 5.74 10.661 C0.485 10.533 -4.771 10.397 -10.026 10.256 C-9.215 8.776 -8.402 7.297 -7.588 5.819 C-7.362 5.407 -7.362 5.407 -6.217 3.323 C-4.352 0.088 -3.658 0.121 0 0 Z "
     fill="#013775"
     transform="translate(401.025634765625,329.74365234375)"
     id="path62"
     style="fill:#d8182d;fill-opacity:1" />
  <path
     d="M0 0 C13.2 0 26.4 0 40 0 C37.358 5.285 34.218 8.224 29 11 C24.761 11.798 20.731 11.673 16.438 11.438 C15.333 11.406 14.229 11.374 13.092 11.342 C10.392 11.26 7.697 11.145 5 11 C4.162 9.545 3.329 8.086 2.5 6.625 C2.268 6.219 2.268 6.219 1.094 4.164 C0 2 0 2 0 0 Z "
     fill="#013775"
     transform="translate(412,229)"
     id="path64"
     style="fill:#d8182d;fill-opacity:1" />
  <path
     d="M0 0 C6.755 1.361 13.086 3.287 19.562 5.625 C20.476 5.95 21.389 6.275 22.33 6.609 C24.555 7.402 26.778 8.198 29 9 C29 9.66 29 10.32 29 11 C26.167 12.105 23.334 13.209 20.5 14.312 C19.709 14.621 18.917 14.93 18.102 15.248 C16.514 15.866 14.925 16.482 13.336 17.096 C11.797 17.692 10.261 18.293 8.727 18.9 C5.679 20.087 3.301 21 0 21 C0.084 20.322 0.168 19.644 0.254 18.945 C0.966 12.437 0.86 6.479 0 0 Z "
     fill="#F9BF08"
     transform="translate(253,159)"
     id="path65" />
  <path
     d="M0 0 C2.939 1.47 3.069 3.404 4.164 6.461 C4.564 7.572 4.963 8.683 5.375 9.828 C5.787 10.999 6.2 12.169 6.625 13.375 C7.045 14.538 7.465 15.7 7.898 16.898 C11 25.599 11 25.599 11 29 C4.07 29 -2.86 29 -10 29 C-7.562 18.961 -3.841 9.565 0 0 Z "
     fill="#F9BF08"
     transform="translate(210,98)"
     id="path66" />
  <path
     d="M0 0 C0 6.93 0 13.86 0 21 C-3.896 20.221 -7.068 19.327 -10.738 17.934 C-11.805 17.531 -12.872 17.128 -13.971 16.713 C-15.073 16.292 -16.176 15.871 -17.312 15.438 C-18.435 15.013 -19.557 14.588 -20.713 14.15 C-23.477 13.104 -26.239 12.053 -29 11 C-27.661 8.323 -26.536 8.295 -23.738 7.344 C-22.866 7.043 -21.994 6.743 -21.096 6.434 C-20.177 6.126 -19.259 5.817 -18.312 5.5 C-17.863 5.346 -17.863 5.346 -15.588 4.566 C-13.842 3.97 -12.095 3.377 -10.346 2.789 C-8.387 2.13 -6.433 1.457 -4.48 0.781 C-2 0 -2 0 0 0 Z "
     fill="#F9BF08"
     transform="translate(168,159)"
     id="path67" />
  <path
     d="M0 0 C1.262 3.636 0.754 6.345 0.004 10.078 C-0.225 11.238 -0.454 12.398 -0.689 13.594 C-0.936 14.8 -1.183 16.007 -1.438 17.25 C-1.68 18.472 -1.923 19.694 -2.174 20.953 C-2.775 23.97 -3.384 26.986 -4 30 C-7.475 29.217 -9.966 27.954 -13 26.062 C-15.95 24.232 -18.868 22.501 -22 21 C-20.699 18.07 -19.408 16.214 -16.953 14.16 C-16.355 13.654 -15.757 13.148 -15.141 12.627 C-14.517 12.111 -13.893 11.594 -13.25 11.062 C-12.642 10.55 -12.033 10.038 -11.406 9.51 C-9.61 7.999 -7.806 6.499 -6 5 C-4.849 4.041 -3.698 3.081 -2.547 2.121 C-1.706 1.421 -0.866 0.721 0 0 Z "
     fill="#F9BF08"
     transform="translate(246,107)"
     id="path68" />
  <path
     d="M0 0 C0.66 0 1.32 0 2 0 C2.839 4.249 3.67 8.499 4.5 12.75 C4.738 13.957 4.977 15.163 5.223 16.406 C5.448 17.566 5.674 18.727 5.906 19.922 C6.116 20.99 6.325 22.058 6.541 23.159 C7 26 7 26 7 30 C3.261 28.419 0.704 26.068 -2.25 23.312 C-6.297 19.558 -10.397 15.91 -14.637 12.375 C-16 11 -16 11 -16 9 C-15.013 8.518 -14.025 8.036 -13.008 7.539 C-11.713 6.901 -10.419 6.263 -9.125 5.625 C-8.474 5.308 -7.823 4.991 -7.152 4.664 C-4.418 3.311 -2.172 2.172 0 0 Z "
     fill="#F9BF08"
     transform="translate(240,201)"
     id="path69" />
  <path
     d="M0 0 C6.93 0 13.86 0 21 0 C19.083 6.391 17.145 12.712 14.938 19 C14.682 19.749 14.426 20.498 14.162 21.27 C12.237 26.763 12.237 26.763 10 29 C8.574 25.031 7.15 21.062 5.728 17.092 C5.243 15.741 4.758 14.389 4.272 13.038 C3.576 11.1 2.882 9.162 2.188 7.223 C1.769 6.055 1.35 4.887 0.918 3.684 C0 1 0 1 0 0 Z "
     fill="#F9BF08"
     transform="translate(200,212)"
     id="path70" />
  <path
     d="M0 0 C3.765 1.255 4.694 2.831 7.125 5.938 C11.01 10.824 15.083 15.447 19.348 20.004 C21 22 21 22 21 24 C16.75 23.189 12.5 22.376 8.25 21.562 C7.043 21.332 5.837 21.102 4.594 20.865 C4.014 20.754 4.014 20.754 1.078 20.191 C0.01 19.987 -1.058 19.783 -2.159 19.573 C-4.462 19.108 -6.729 18.596 -9 18 C-7.647 14.354 -5.991 11.174 -3.938 7.875 C-2.273 5.197 -1 3 0 0 Z "
     fill="#F9BF08"
     transform="translate(252,182)"
     id="path71" />
  <path
     d="M0 0 C-0.785 0.906 -1.57 1.812 -2.379 2.746 C-3.441 3.976 -4.502 5.207 -5.562 6.438 C-6.11 7.072 -6.657 7.706 -7.22 8.36 C-10.881 12.629 -14.375 16.981 -17.695 21.523 C-18.126 22.011 -18.556 22.498 -19 23 C-19.66 23 -20.32 23 -21 23 C-24 17 -27 11 -30 5 C-23.564 3.078 -17.09 1.529 -10.5 0.25 C-9.806 0.11 -9.112 -0.029 -8.396 -0.173 C-5.116 -0.789 -3.221 -1.074 0 0 Z "
     fill="#F9BF08"
     transform="translate(273,134)"
     id="path72" />
  <path
     d="M0 0 C0.482 0.277 0.482 0.277 2.922 1.68 C4.198 2.412 5.474 3.143 6.75 3.875 C7.067 4.057 7.067 4.057 8.672 4.98 C11.743 6.74 14.809 8.469 18 10 C14.422 13.624 10.757 17.125 7 20.562 C6.492 21.031 5.984 21.5 5.461 21.982 C2.402 24.786 -0.73 27.446 -4 30 C-4.66 29.67 -5.32 29.34 -6 29 C-5.192 24.541 -4.378 20.083 -3.562 15.625 C-3.332 14.354 -3.102 13.083 -2.865 11.773 C-2.643 10.562 -2.421 9.35 -2.191 8.102 C-1.987 6.981 -1.783 5.86 -1.573 4.706 C-1 2 -1 2 0 0 Z "
     fill="#F9BF08"
     transform="translate(180,201)"
     id="path73" />
  <path
     d="M0 0 C4.169 0.526 6.268 2.805 9.25 5.625 C13.273 9.389 17.339 13.059 21.539 16.625 C23 18 23 18 24 20 C18 23 12 26 6 29 C3.398 19.423 1.633 9.777 0 0 Z "
     fill="#F9BF08"
     transform="translate(174,108)"
     id="path74" />
  <path
     d="M0 0 C2.982 1.491 3.513 3.778 4.938 6.75 C6.803 10.624 8.766 14.328 11 18 C7.05 18.857 3.099 19.712 -0.853 20.563 C-2.198 20.854 -3.542 21.145 -4.886 21.437 C-6.817 21.855 -8.748 22.272 -10.68 22.688 C-11.842 22.939 -13.005 23.19 -14.203 23.449 C-17 24 -17 24 -19 24 C-14.973 14.908 -6.615 7.299 0 0 Z "
     fill="#F9BF08"
     transform="translate(168,182)"
     id="path75" />
  <path
     d="M0 0 C10.183 1.346 20.037 3.542 30 6 C29.529 6.713 29.059 7.426 28.574 8.16 C25.221 13.318 22.176 18.24 20 24 C16.376 20.422 12.875 16.757 9.438 13 C8.969 12.492 8.5 11.984 8.018 11.461 C0 2.714 0 2.714 0 0 Z "
     fill="#F9BF08"
     transform="translate(149,133)"
     id="path76" />
  <path
     d="m 705,264 c 1.938,1.688 1.938,1.688 3,4 -0.122,3.487 -0.286,5.98 -2.312,8.875 -2.064,1.375 -3.188,1.982 -5.688,2.125 -3.17,-1.204 -5.354,-2.158 -7.438,-4.875 -0.735,-2.779 -0.449,-4.396 0.438,-7.125 3.322,-5.437 6.353,-5.471 12,-3 z"
     fill="#043976"
     id="path81" />
  <path
     d="m 701.9375,357.125 c 3.551,1.015 4.943,1.859 7.062,4.875 0.609,3.649 0.515,5.268 -1.624,8.313 -2.955,2.099 -4.745,2.687 -8.376,2.687 -3.127,-1.807 -4.624,-3.085 -6,-6.437 0,-3.358 0.993,-4.91 3,-7.563 3,-2 3,-2 5.938,-1.875 z"
     fill="#013775"
     id="path82" />
  <path
     d="m 946.0625,357 c 3.395,1.156 4.875,2.065 6.938,5 0.5,3 0.5,3 0,6 -1.937,2.654 -3.379,3.761 -6.438,4.938 -3.354,0.081 -4.912,-0.95 -7.562,-2.938 -1.565,-3.129 -1.357,-5.556 -1,-9 2.639,-3.105 3.964,-4 8.062,-4 z"
     fill="#013775"
     id="path83" />
  <path
     d="m 783,264 c 1.938,1.125 1.938,1.125 3,3 0.506,3.979 0.666,6.096 -1.75,9.375 -3.52,2.542 -3.52,2.542 -6.25,2.625 -3.446,-1.641 -4.857,-2.785 -7,-6 0.132,-3.683 0.267,-6.097 2.625,-9 3.459,-1.456 5.788,-0.913 9.375,0 z"
     fill="#013775"
     id="path84" />
  <path
     d="m 1038.5625,451.875 c 3.438,1.125 3.438,1.125 5.5,3.812 1.126,3.978 0.769,5.65 -1.062,9.313 -3,2 -3,2 -6.5,1.937 -3.5,-0.937 -3.5,-0.937 -5.5,-3.187 -1.174,-3.227 -1.228,-4.557 0,-7.75 2.364,-3.456 3.322,-3.976 7.562,-4.125 z"
     fill="#027947"
     id="path88"
     style="fill:#d8182d;fill-opacity:1" />
  <path
     d="m 694.125,452.0625 c 4.367,1.424 4.367,1.424 5.875,3.938 0.5,3.93 0.6,6.1 -1.625,9.437 -3.092,2.034 -4.739,2.169 -8.375,1.563 -2.375,-1.563 -2.375,-1.563 -4,-4 -0.563,-3.5 -0.563,-3.5 0,-7 2.675,-3.147 3.969,-4.021 8.125,-3.938 z"
     fill="#027947"
     id="path89"
     style="fill:#d8182d;fill-opacity:1" />
  <path
     d="m 622,452 c 2.285,1.777 3.645,3.29 4.938,5.875 0.101,3.467 -0.949,5.327 -2.938,8.125 -3.681,1.138 -5.82,1.528 -9.375,-0.062 -2.241,-2.672 -2.556,-4.467 -2.625,-7.938 2.35,-5.036 4.4,-6.667 10,-6 z"
     fill="#027947"
     id="path91"
     style="fill:#d8182d;fill-opacity:1" />
  <text
     xml:space="preserve"
     id="text107"
     style="font-size:11.7331px;font-family:Arial;-inkscape-font-specification:'Arial, Normal';white-space:pre;shape-inside:url(#rect107);display:inline;fill:#d8182d;fill-opacity:1"
     transform="matrix(7.3339593,0,0,6.8122676,-3791.9418,-1086.898)" />
  <text
     xml:space="preserve"
     id="text108"
     style="font-style:normal;font-variant:normal;font-weight:900;font-stretch:normal;font-size:80px;font-family:Arial;-inkscape-font-specification:'Arial, Heavy';font-variant-ligatures:normal;font-variant-caps:normal;font-variant-numeric:normal;font-variant-east-asian:normal;white-space:pre;shape-inside:url(#rect109);display:inline;fill:#f9bf08;fill-opacity:1"
     transform="translate(-9.583984,-77.84569)"><tspan
       x="566.76367"
       y="271.35522"
       id="tspan2">EPIC Project</tspan></text>
  <text
     xml:space="preserve"
     id="text108-7"
     style="font-style:normal;font-variant:normal;font-weight:900;font-stretch:normal;font-size:40px;font-family:Arial;-inkscape-font-specification:'Arial, Heavy';font-variant-ligatures:normal;font-variant-caps:normal;font-variant-numeric:normal;font-variant-east-asian:normal;white-space:pre;shape-inside:url(#rect109-2);display:inline;fill:#027947;fill-opacity:1"
     transform="translate(60.475546,381.68253)"><tspan
       x="566.76367"
       y="235.49206"
       id="tspan3">- Windhoek 2026 -</tspan></text>
</svg>
